<svg
  width="84"
  height="80"
  viewBox="0 0 84 80"
  fill="none"
  xmlns="http://www.w3.org/2000/svg"
>
  <path
    d="M42.0121 79.748C62.6129 79.748 79.3132 63.1074 79.3132 42.5801C79.3132 22.0528 62.6129 5.41211 42.0121 5.41211C21.4112 5.41211 4.71094 22.0528 4.71094 42.5801C4.71094 63.1074 21.4112 79.748 42.0121 79.748Z"
    fill="url(#paint0_linear_29765_371533)"
  />
  <path
    d="M62.1339 14.0605H20.8121C18.2364 14.0605 16.1484 16.1411 16.1484 18.7075H66.7975C66.7975 16.1411 64.7095 14.0605 62.1339 14.0605Z"
    fill="#9385FF"
  />
  <path
    d="M16.1484 18.5811H66.7975V57.0185C66.7975 58.7274 66.1162 60.3664 64.9034 61.5748C63.6907 62.7832 62.0458 63.4621 60.3308 63.4621H22.6151C20.9001 63.4621 19.2552 62.7832 18.0425 61.5748C16.8297 60.3664 16.1484 58.7274 16.1484 57.0185V18.5811Z"
    fill="#D5D4FF"
  />
  <path
    d="M58.09 23.4355H24.8699C24.178 23.4355 23.6172 23.9938 23.6172 24.6824C23.6172 25.371 24.178 25.9292 24.8699 25.9292H58.09C58.7818 25.9292 59.3427 25.371 59.3427 24.6824C59.3427 23.9938 58.7818 23.4355 58.09 23.4355Z"
    fill="url(#paint1_linear_29765_371533)"
  />
  <path
    d="M58.09 34.0303H24.8699C24.178 34.0303 23.6172 34.5885 23.6172 35.2771C23.6172 35.9657 24.178 36.524 24.8699 36.524H58.09C58.7818 36.524 59.3427 35.9657 59.3427 35.2771C59.3427 34.5885 58.7818 34.0303 58.09 34.0303Z"
    fill="url(#paint2_linear_29765_371533)"
  />
  <path
    d="M58.09 44.6255H24.8699C24.178 44.6255 23.6172 45.1837 23.6172 45.8723C23.6172 46.5609 24.178 47.1192 24.8699 47.1192H58.09C58.7818 47.1192 59.3427 46.5609 59.3427 45.8723C59.3427 45.1837 58.7818 44.6255 58.09 44.6255Z"
    fill="url(#paint3_linear_29765_371533)"
  />
  <path
    d="M58.09 55.2197H24.8699C24.178 55.2197 23.6172 55.778 23.6172 56.4666C23.6172 57.1552 24.178 57.7134 24.8699 57.7134H58.09C58.7818 57.7134 59.3427 57.1552 59.3427 56.4666C59.3427 55.778 58.7818 55.2197 58.09 55.2197Z"
    fill="url(#paint4_linear_29765_371533)"
  />
  <g filter="url(#filter0_d_29765_371533)">
    <path
      d="M24.6451 42.353H6.95594C5.53484 42.353 4.38281 43.5009 4.38281 44.917V70.1105C4.38281 71.5266 5.53484 72.6745 6.95594 72.6745H24.6451C26.0662 72.6745 27.2183 71.5266 27.2183 70.1105V44.917C27.2183 43.5009 26.0662 42.353 24.6451 42.353Z"
      fill="url(#paint5_linear_29765_371533)"
    />
  </g>
  <g filter="url(#filter1_d_29765_371533)">
    <path
      d="M75.0072 3H55.4688C54.5584 3 53.8203 3.73544 53.8203 4.64265V13.7934C53.8203 14.7006 54.5584 15.436 55.4688 15.436H75.0072C75.9177 15.436 76.6558 14.7006 76.6558 13.7934V4.64265C76.6558 3.73544 75.9177 3 75.0072 3Z"
      fill="#D5D4FF"
    />
  </g>
  <path
    d="M22.673 54.9565H8.93157C8.46886 54.9565 8.09375 55.3303 8.09375 55.7914V55.7941C8.09375 56.2551 8.46886 56.6289 8.93157 56.6289H22.673C23.1357 56.6289 23.5108 56.2551 23.5108 55.7941V55.7914C23.5108 55.3303 23.1357 54.9565 22.673 54.9565Z"
    fill="url(#paint6_linear_29765_371533)"
  />
  <path
    d="M22.6805 66.7241H9.05719C8.59845 66.7241 8.22656 67.0862 8.22656 67.5329V67.5355C8.22656 67.9822 8.59845 68.3443 9.05719 68.3443H22.6805C23.1392 68.3443 23.5111 67.9822 23.5111 67.5355V67.5329C23.5111 67.0862 23.1392 66.7241 22.6805 66.7241Z"
    fill="url(#paint7_linear_29765_371533)"
  />
  <path
    d="M22.6805 60.5674H9.05719C8.59845 60.5674 8.22656 60.9295 8.22656 61.3762V61.3788C8.22656 61.8255 8.59845 62.1876 9.05719 62.1876H22.6805C23.1392 62.1876 23.5111 61.8255 23.5111 61.3788V61.3762C23.5111 60.9295 23.1392 60.5674 22.6805 60.5674Z"
    fill="url(#paint8_linear_29765_371533)"
  />
  <path
    d="M13.9543 46.2432H9.9387C9.0492 46.2432 8.32812 46.9617 8.32812 47.848V48.9584C8.32812 49.8447 9.0492 50.5632 9.9387 50.5632H13.9543C14.8438 50.5632 15.5649 49.8447 15.5649 48.9584V47.848C15.5649 46.9617 14.8438 46.2432 13.9543 46.2432Z"
    fill="url(#paint9_linear_29765_371533)"
  />
  <path
    d="M58.6375 11.1051C59.6842 11.1051 60.5327 10.2596 60.5327 9.21663C60.5327 8.17364 59.6842 7.32812 58.6375 7.32812C57.5907 7.32812 56.7422 8.17364 56.7422 9.21663C56.7422 10.2596 57.5907 11.1051 58.6375 11.1051Z"
    fill="url(#paint10_linear_29765_371533)"
  />
  <path
    d="M65.4109 11.1051C66.4576 11.1051 67.3062 10.2596 67.3062 9.21663C67.3062 8.17364 66.4576 7.32812 65.4109 7.32812C64.3642 7.32812 63.5156 8.17364 63.5156 9.21663C63.5156 10.2596 64.3642 11.1051 65.4109 11.1051Z"
    fill="url(#paint11_linear_29765_371533)"
  />
  <path
    d="M72.1843 11.1051C73.2311 11.1051 74.0796 10.2596 74.0796 9.21663C74.0796 8.17364 73.2311 7.32812 72.1843 7.32812C71.1376 7.32812 70.2891 8.17364 70.2891 9.21663C70.2891 10.2596 71.1376 11.1051 72.1843 11.1051Z"
    fill="url(#paint12_linear_29765_371533)"
  />
  <path
    d="M67.0501 56.1484L62.25 61.4214L75.7799 73.6501L80.58 68.3771L67.0501 56.1484Z"
    fill="#9385FF"
  />
  <path
    fill-rule="evenodd"
    clip-rule="evenodd"
    d="M72.1143 47.4206C72.1143 58.4519 63.1396 67.3945 52.0689 67.3945C40.9981 67.3945 32.0234 58.4519 32.0234 47.4206C32.0234 36.3894 40.9981 27.4468 52.0689 27.4468C63.1396 27.4468 72.1143 36.3894 72.1143 47.4206ZM69.039 47.4205C69.039 56.7597 61.441 64.3306 52.0683 64.3306C42.6957 64.3306 35.0976 56.7597 35.0976 47.4205C35.0976 38.0813 42.6957 30.5104 52.0683 30.5104C61.441 30.5104 69.039 38.0813 69.039 47.4205Z"
    fill="#9385FF"
  />
  <g filter="url(#filter2_b_29765_371533)">
    <path
      d="M52.0722 64.3309C61.4449 64.3309 69.0429 56.76 69.0429 47.4208C69.0429 38.0816 61.4449 30.5107 52.0722 30.5107C42.6996 30.5107 35.1016 38.0816 35.1016 47.4208C35.1016 56.76 42.6996 64.3309 52.0722 64.3309Z"
      fill="url(#paint13_linear_29765_371533)"
      fill-opacity="0.2"
    />
  </g>
  <path
    d="M56.1562 47.4209L61.0096 42.574C61.4643 42.0945 61.7134 41.4572 61.704 40.7976C61.6946 40.138 61.4275 39.508 60.9594 39.0415C60.4912 38.5751 59.859 38.3089 59.197 38.2995C58.535 38.2902 57.8955 38.5384 57.4143 38.9915L52.55 43.8384L47.6966 38.9915C47.463 38.7452 47.1823 38.5481 46.871 38.4118C46.5596 38.2755 46.224 38.2028 45.884 38.198C45.544 38.1932 45.2065 38.2564 44.8914 38.3838C44.5763 38.5113 44.2901 38.7004 44.0496 38.94C43.8091 39.1796 43.6194 39.4648 43.4914 39.7788C43.3635 40.0927 43.3001 40.4291 43.3049 40.7679C43.3098 41.1067 43.3827 41.4411 43.5195 41.7513C43.6563 42.0615 43.8541 42.3413 44.1013 42.574L48.9628 47.4209L44.1013 52.2678C43.8541 52.5005 43.6563 52.7802 43.5195 53.0904C43.3827 53.4007 43.3098 53.7351 43.3049 54.0739C43.3001 54.4127 43.3635 54.749 43.4914 55.063C43.6194 55.3769 43.8091 55.6621 44.0496 55.9017C44.2901 56.1413 44.5763 56.3304 44.8914 56.4579C45.2065 56.5853 45.544 56.6485 45.884 56.6437C46.224 56.6389 46.5596 56.5662 46.871 56.4299C47.1823 56.2937 47.463 56.0965 47.6966 55.8502L52.5608 51.0034L57.4251 55.8502C57.9109 56.2766 58.5415 56.5023 59.1885 56.4814C59.8355 56.4605 60.4502 56.1946 60.9072 55.7378C61.3643 55.281 61.6293 54.6677 61.6483 54.023C61.6674 53.3782 61.4389 52.7505 61.0096 52.2678L56.1562 47.4209Z"
    fill="#7B61FF"
  />
  <g filter="url(#filter3_f_29765_371533)">
    <ellipse
      cx="52.6333"
      cy="56.761"
      rx="11.9302"
      ry="1.75612"
      fill="#7B61FF"
      fill-opacity="0.56"
    />
  </g>
  <path
    d="M38.8483 68.4252C39.017 67.7287 40.0076 67.7287 40.1764 68.4252L40.7427 70.7626C40.803 71.0118 40.9977 71.2061 41.2469 71.2661L43.5831 71.828C44.2811 71.9959 44.2811 72.9888 43.5831 73.1566L41.2469 73.7186C40.9977 73.7785 40.803 73.9729 40.7427 74.222L40.1764 76.5595C40.0076 77.256 39.017 77.256 38.8483 76.5595L38.282 74.222C38.2217 73.9729 38.027 73.7785 37.7777 73.7186L35.4415 73.1566C34.7436 72.9888 34.7436 71.9959 35.4415 71.828L37.7777 71.2661C38.0269 71.2061 38.2217 71.0118 38.282 70.7626L38.8483 68.4252Z"
    fill="#9385FF"
  />
  <path
    d="M11.8561 6.20887C12.0248 5.51234 13.0155 5.51234 13.1842 6.20886L13.7505 8.54633C13.8108 8.79544 14.0055 8.98983 14.2547 9.04977L16.5909 9.6117C17.2889 9.77959 17.2889 10.7725 16.5909 10.9403L14.2547 11.5023C14.0055 11.5622 13.8108 11.7566 13.7505 12.0057L13.1842 14.3432C13.0155 15.0397 12.0248 15.0397 11.8561 14.3432L11.2898 12.0057C11.2295 11.7566 11.0348 11.5622 10.7855 11.5023L8.44936 10.9403C7.75139 10.7725 7.75139 9.77959 8.44936 9.6117L10.7855 9.04977C11.0348 8.98983 11.2295 8.79545 11.2898 8.54633L11.8561 6.20887Z"
    fill="#9385FF"
  />
  <path
    fill-rule="evenodd"
    clip-rule="evenodd"
    d="M40.5241 6.58822C41.153 6.58822 41.6629 6.08019 41.6629 5.45351C41.6629 4.82683 41.153 4.3188 40.5241 4.3188C39.8952 4.3188 39.3853 4.82683 39.3853 5.45351C39.3853 6.08019 39.8952 6.58822 40.5241 6.58822ZM40.5241 7.43925C41.6247 7.43925 42.517 6.55021 42.517 5.45351C42.517 4.35682 41.6247 3.46777 40.5241 3.46777C39.4235 3.46777 38.5312 4.35682 38.5312 5.45351C38.5312 6.55021 39.4235 7.43925 40.5241 7.43925Z"
    fill="#9385FF"
  />
  <path
    d="M75.9377 37.8353C75.8292 37.4113 76.222 37.0294 76.6447 37.1477L79.4896 37.9443C79.9124 38.0627 80.048 38.5927 79.7338 38.8983L77.619 40.9549C77.3047 41.2605 76.7763 41.1125 76.6678 40.6885L75.9377 37.8353Z"
    fill="#9385FF"
  />
  <path
    d="M9.16874 32.9622C9.59438 32.8546 9.97728 33.2466 9.85794 33.6676L9.0548 36.5014C8.93546 36.9224 8.40345 37.0568 8.09716 36.7433L6.03587 34.6334C5.72958 34.3198 5.87871 33.7935 6.30431 33.686L9.16874 32.9622Z"
    fill="#9385FF"
  />
  <path
    d="M63.4812 72.1712C63.9069 72.0636 64.2898 72.4556 64.1704 72.8766L63.3673 75.7103C63.248 76.1314 62.716 76.2658 62.4097 75.9523L60.3484 73.8423C60.0421 73.5288 60.1912 73.0025 60.6168 72.895L63.4812 72.1712Z"
    fill="#9385FF"
  />
  <path
    fill-rule="evenodd"
    clip-rule="evenodd"
    d="M78.571 23.1146C79.1999 23.1146 79.7098 22.6066 79.7098 21.9799C79.7098 21.3532 79.1999 20.8452 78.571 20.8452C77.9421 20.8452 77.4322 21.3532 77.4322 21.9799C77.4322 22.6066 77.9421 23.1146 78.571 23.1146ZM78.571 23.9656C79.6716 23.9656 80.5638 23.0766 80.5638 21.9799C80.5638 20.8832 79.6716 19.9941 78.571 19.9941C77.4704 19.9941 76.5781 20.8832 76.5781 21.9799C76.5781 23.0766 77.4704 23.9656 78.571 23.9656Z"
    fill="#9385FF"
  />
  <path
    d="M75.7734 73.6504L80.5735 68.3774L81.2965 69.0309C81.998 69.6649 82.418 70.5506 82.4641 71.4932C82.5102 72.4357 82.1786 73.3579 81.5423 74.0569C80.906 74.7559 80.0171 75.1744 79.0712 75.2203C78.1252 75.2662 77.1997 74.9359 76.4982 74.3018L75.7753 73.6484L75.7734 73.6504Z"
    fill="#9385FF"
  />
  <defs>
    <filter
      id="filter0_d_29765_371533"
      x="0.480374"
      y="39.7514"
      width="32.592"
      height="40.0774"
      filterUnits="userSpaceOnUse"
      color-interpolation-filters="sRGB"
    >
      <feFlood flood-opacity="0" result="BackgroundImageFix" />
      <feColorMatrix
        in="SourceAlpha"
        type="matrix"
        values="0 0 0 0 0 0 0 0 0 0 0 0 0 0 0 0 0 0 127 0"
        result="hardAlpha"
      />
      <feOffset dx="0.97561" dy="2.27642" />
      <feGaussianBlur stdDeviation="2.43902" />
      <feComposite in2="hardAlpha" operator="out" />
      <feColorMatrix
        type="matrix"
        values="0 0 0 0 0.104618 0 0 0 0 0.465612 0 0 0 0 0.545833 0 0 0 0.15 0"
      />
      <feBlend
        mode="normal"
        in2="BackgroundImageFix"
        result="effect1_dropShadow_29765_371533"
      />
      <feBlend
        mode="normal"
        in="SourceGraphic"
        in2="effect1_dropShadow_29765_371533"
        result="shape"
      />
    </filter>
    <filter
      id="filter1_d_29765_371533"
      x="51.5439"
      y="0.0731709"
      width="31.2912"
      height="20.8913"
      filterUnits="userSpaceOnUse"
      color-interpolation-filters="sRGB"
    >
      <feFlood flood-opacity="0" result="BackgroundImageFix" />
      <feColorMatrix
        in="SourceAlpha"
        type="matrix"
        values="0 0 0 0 0 0 0 0 0 0 0 0 0 0 0 0 0 0 127 0"
        result="hardAlpha"
      />
      <feOffset dx="1.95122" dy="1.30081" />
      <feGaussianBlur stdDeviation="2.11382" />
      <feComposite in2="hardAlpha" operator="out" />
      <feColorMatrix
        type="matrix"
        values="0 0 0 0 0.104618 0 0 0 0 0.465612 0 0 0 0 0.545833 0 0 0 0.09 0"
      />
      <feBlend
        mode="normal"
        in2="BackgroundImageFix"
        result="effect1_dropShadow_29765_371533"
      />
      <feBlend
        mode="normal"
        in="SourceGraphic"
        in2="effect1_dropShadow_29765_371533"
        result="shape"
      />
    </filter>
    <filter
      id="filter2_b_29765_371533"
      x="29.6788"
      y="25.0879"
      width="44.7831"
      height="44.6659"
      filterUnits="userSpaceOnUse"
      color-interpolation-filters="sRGB"
    >
      <feFlood flood-opacity="0" result="BackgroundImageFix" />
      <feGaussianBlur in="BackgroundImageFix" stdDeviation="2.7114" />
      <feComposite
        in2="SourceAlpha"
        operator="in"
        result="effect1_backgroundBlur_29765_371533"
      />
      <feBlend
        mode="normal"
        in="SourceGraphic"
        in2="effect1_backgroundBlur_29765_371533"
        result="shape"
      />
    </filter>
    <filter
      id="filter3_f_29765_371533"
      x="33.9246"
      y="48.2264"
      width="37.4164"
      height="17.0692"
      filterUnits="userSpaceOnUse"
      color-interpolation-filters="sRGB"
    >
      <feFlood flood-opacity="0" result="BackgroundImageFix" />
      <feBlend
        mode="normal"
        in="SourceGraphic"
        in2="BackgroundImageFix"
        result="shape"
      />
      <feGaussianBlur
        stdDeviation="3.38926"
        result="effect1_foregroundBlur_29765_371533"
      />
    </filter>
    <linearGradient
      id="paint0_linear_29765_371533"
      x1="41.7245"
      y1="-6.69069"
      x2="42.4832"
      y2="123.838"
      gradientUnits="userSpaceOnUse"
    >
      <stop stop-color="white" stop-opacity="0" />
      <stop offset="1" stop-color="#9385FF" />
    </linearGradient>
    <linearGradient
      id="paint1_linear_29765_371533"
      x1="23.6172"
      y1="23.4355"
      x2="24.1002"
      y2="30.6566"
      gradientUnits="userSpaceOnUse"
    >
      <stop stop-color="#E9E8FF" />
      <stop offset="1" stop-color="#B7B1FF" />
    </linearGradient>
    <linearGradient
      id="paint2_linear_29765_371533"
      x1="23.6172"
      y1="34.0303"
      x2="24.1002"
      y2="41.2514"
      gradientUnits="userSpaceOnUse"
    >
      <stop stop-color="#E9E8FF" />
      <stop offset="1" stop-color="#B7B1FF" />
    </linearGradient>
    <linearGradient
      id="paint3_linear_29765_371533"
      x1="23.6172"
      y1="44.6255"
      x2="24.1002"
      y2="51.8466"
      gradientUnits="userSpaceOnUse"
    >
      <stop stop-color="#E9E8FF" />
      <stop offset="1" stop-color="#B7B1FF" />
    </linearGradient>
    <linearGradient
      id="paint4_linear_29765_371533"
      x1="23.6172"
      y1="55.2197"
      x2="24.1002"
      y2="62.4408"
      gradientUnits="userSpaceOnUse"
    >
      <stop stop-color="#E9E8FF" />
      <stop offset="1" stop-color="#B7B1FF" />
    </linearGradient>
    <linearGradient
      id="paint5_linear_29765_371533"
      x1="3.69716"
      y1="65.0904"
      x2="47.4631"
      y2="68.6978"
      gradientUnits="userSpaceOnUse"
    >
      <stop stop-color="white" />
      <stop offset="1" stop-color="#9385FF" />
    </linearGradient>
    <linearGradient
      id="paint6_linear_29765_371533"
      x1="8.09375"
      y1="54.9565"
      x2="8.59396"
      y2="59.769"
      gradientUnits="userSpaceOnUse"
    >
      <stop stop-color="#E9E8FF" />
      <stop offset="1" stop-color="#B7B1FF" />
    </linearGradient>
    <linearGradient
      id="paint7_linear_29765_371533"
      x1="8.22656"
      y1="66.7241"
      x2="8.70035"
      y2="71.3887"
      gradientUnits="userSpaceOnUse"
    >
      <stop stop-color="#E9E8FF" />
      <stop offset="1" stop-color="#B7B1FF" />
    </linearGradient>
    <linearGradient
      id="paint8_linear_29765_371533"
      x1="8.22656"
      y1="60.5674"
      x2="8.70035"
      y2="65.232"
      gradientUnits="userSpaceOnUse"
    >
      <stop stop-color="#E9E8FF" />
      <stop offset="1" stop-color="#B7B1FF" />
    </linearGradient>
    <linearGradient
      id="paint9_linear_29765_371533"
      x1="8.32813"
      y1="46.2432"
      x2="13.7439"
      y2="55.7111"
      gradientUnits="userSpaceOnUse"
    >
      <stop stop-color="#E9E8FF" />
      <stop offset="1" stop-color="#B7B1FF" />
    </linearGradient>
    <linearGradient
      id="paint10_linear_29765_371533"
      x1="56.7422"
      y1="7.32813"
      x2="62.2294"
      y2="13.0752"
      gradientUnits="userSpaceOnUse"
    >
      <stop stop-color="#E9E8FF" />
      <stop offset="1" stop-color="#B7B1FF" />
    </linearGradient>
    <linearGradient
      id="paint11_linear_29765_371533"
      x1="63.5156"
      y1="7.32813"
      x2="69.0028"
      y2="13.0752"
      gradientUnits="userSpaceOnUse"
    >
      <stop stop-color="#E9E8FF" />
      <stop offset="1" stop-color="#B7B1FF" />
    </linearGradient>
    <linearGradient
      id="paint12_linear_29765_371533"
      x1="70.2891"
      y1="7.32813"
      x2="75.7763"
      y2="13.0752"
      gradientUnits="userSpaceOnUse"
    >
      <stop stop-color="#E9E8FF" />
      <stop offset="1" stop-color="#B7B1FF" />
    </linearGradient>
    <linearGradient
      id="paint13_linear_29765_371533"
      x1="52.0722"
      y1="30.5107"
      x2="69.0668"
      y2="74.7679"
      gradientUnits="userSpaceOnUse"
    >
      <stop stop-color="white" />
      <stop offset="1" stop-color="#9385FF" />
    </linearGradient>
  </defs>
</svg>
