<svg
  width="17"
  height="16"
  viewBox="0 0 17 16"
  fill="none"
  xmlns="http://www.w3.org/2000/svg"
>
  <path
    d="M10.7619 3.47301L11.7019 5.35301C11.8286 5.61301 12.1686 5.85967 12.4552 5.91301L14.1553 6.19301C15.2419 6.37301 15.4953 7.15967 14.7153 7.94634L13.3886 9.27301C13.1686 9.49301 13.0419 9.92634 13.1153 10.2397L13.4952 11.8797C13.7952 13.173 13.1019 13.6797 11.9619 12.9997L10.3686 12.053C10.0819 11.8797 9.60192 11.8797 9.31525 12.053L7.72191 12.9997C6.58191 13.673 5.88859 13.173 6.18859 11.8797L6.56859 10.2397C6.64192 9.93301 6.51526 9.49968 6.29526 9.27301L4.96859 7.94634C4.18859 7.16634 4.44193 6.37968 5.52859 6.19301L7.22858 5.91301C7.51525 5.86634 7.85525 5.61301 7.98192 5.35301L8.92192 3.47301C9.42192 2.45301 10.2486 2.45301 10.7619 3.47301Z"
    fill="url(#paint0_linear_30454_396079)"
  />
  <path
    opacity="0.4"
    d="M5.83594 3.83301H1.83594C1.5626 3.83301 1.33594 3.60634 1.33594 3.33301C1.33594 3.05967 1.5626 2.83301 1.83594 2.83301H5.83594C6.10927 2.83301 6.33594 3.05967 6.33594 3.33301C6.33594 3.60634 6.10927 3.83301 5.83594 3.83301Z"
    fill="url(#paint1_linear_30454_396079)"
  />
  <path
    opacity="0.4"
    d="M3.83594 13.167H1.83594C1.5626 13.167 1.33594 12.9403 1.33594 12.667C1.33594 12.3937 1.5626 12.167 1.83594 12.167H3.83594C4.10927 12.167 4.33594 12.3937 4.33594 12.667C4.33594 12.9403 4.10927 13.167 3.83594 13.167Z"
    fill="url(#paint2_linear_30454_396079)"
  />
  <path
    opacity="0.4"
    d="M2.5026 8.5H1.83594C1.5626 8.5 1.33594 8.27333 1.33594 8C1.33594 7.72667 1.5626 7.5 1.83594 7.5H2.5026C2.77594 7.5 3.0026 7.72667 3.0026 8C3.0026 8.27333 2.77594 8.5 2.5026 8.5Z"
    fill="url(#paint3_linear_30454_396079)"
  />
  <defs>
    <linearGradient
      id="paint0_linear_30454_396079"
      x1="4.51563"
      y1="2.70801"
      x2="15.1095"
      y2="13.3604"
      gradientUnits="userSpaceOnUse"
    >
      <stop stop-color="#CFF8EA" />
      <stop offset="1" stop-color="#67E1C0" />
    </linearGradient>
    <linearGradient
      id="paint1_linear_30454_396079"
      x1="1.33594"
      y1="2.83301"
      x2="1.72055"
      y2="4.75608"
      gradientUnits="userSpaceOnUse"
    >
      <stop stop-color="#CFF8EA" />
      <stop offset="1" stop-color="#67E1C0" />
    </linearGradient>
    <linearGradient
      id="paint2_linear_30454_396079"
      x1="1.33594"
      y1="12.167"
      x2="1.93594"
      y2="13.967"
      gradientUnits="userSpaceOnUse"
    >
      <stop stop-color="#CFF8EA" />
      <stop offset="1" stop-color="#67E1C0" />
    </linearGradient>
    <linearGradient
      id="paint3_linear_30454_396079"
      x1="1.33594"
      y1="7.5"
      x2="2.21829"
      y2="8.97059"
      gradientUnits="userSpaceOnUse"
    >
      <stop stop-color="#CFF8EA" />
      <stop offset="1" stop-color="#67E1C0" />
    </linearGradient>
  </defs>
</svg>
