<svg
  width="619"
  height="619"
  viewBox="0 0 619 619"
  fill="none"
  xmlns="http://www.w3.org/2000/svg"
>
  <path
    d="M564.93 135.31V240.66C564.93 280.496 557.084 319.943 541.839 356.747C526.594 393.551 504.249 426.992 476.08 455.16H209.54L298.38 366.31L429.14 431.71H429.2C464.2 449.21 473.81 430.47 476.08 413.71V216.71C476.076 198.739 483.209 181.503 495.91 168.79L549.75 114.96C500.639 54.2376 430.356 14.3637 353.039 3.35837C275.721 -7.64698 197.104 11.0326 133 55.64H240.79C280.631 55.6368 320.083 63.4817 356.893 78.7267C393.702 93.9716 427.148 116.318 455.32 144.49V411L366.44 322.15L431.84 191.36C437.84 179.36 439.58 170.36 438.57 163.58C436.69 150.58 424.82 145.94 413.8 144.48H216.8C198.826 144.473 181.59 137.329 168.88 124.62L114.12 69.88C53.8623 119.087 14.3834 189.213 3.56685 266.254C-7.24969 343.296 11.3923 421.582 55.77 485.48V379.75C55.767 339.913 63.6121 300.466 78.8572 263.661C94.1022 226.857 116.449 193.416 144.62 165.25H411.19L322.34 254.1L191.55 188.7C156.55 171.2 146.91 189.94 144.67 206.7V403.7C144.667 412.599 142.911 421.411 139.501 429.632C136.092 437.852 131.096 445.321 124.8 451.61L71 505.52C119.958 565.018 189.38 604.078 265.648 615.04C341.916 626.001 419.527 608.072 483.26 564.77H379.91C340.074 564.77 300.627 556.924 263.823 541.679C227.019 526.434 193.578 504.089 165.41 475.92V209.38L254.26 298.22L188.86 429C182.86 441 181.12 450 182.1 456.78C183.98 469.78 195.85 474.42 206.9 475.88H403.9C421.871 475.889 439.103 483.032 451.81 495.74L504.75 548.65C564.695 499.779 604.133 430.205 615.276 353.67C626.418 277.135 608.453 199.204 564.93 135.27V135.31Z"
    fill="url(#paint0_linear_27959_242130)"
  />
  <defs>
    <linearGradient
      id="paint0_linear_27959_242130"
      x1="492.59"
      y1="531.04"
      x2="225.37"
      y2="207.23"
      gradientUnits="userSpaceOnUse"
    >
      <stop stop-color="#8B85FF" />
      <stop offset="0.99" stop-color="#49DFBA" />
    </linearGradient>
  </defs>
</svg>
